<svg class="diagram-root" style="background: #f5f6f6" xmlns="http://www.w3.org/2000/svg" xmlns:xlink="http://www.w3.org/1999/xlink"><style>.diagram-root { font-family: "Helvetica Neue", sans-serif; font-size: 12px; } .t { overflow: visible; } .t-bg { y: 40; fill: #fff;   } .th { fill: #005aa0;   } .tht { fill: #fff; font-size: 14px;  } .tf { fill: #323c46; overflow: visible; } .tf.pk { fill: #005aa0; font-weight: bold; } .tf.fk { font-weight: bold; } .ty { fill: #adb1b5; font-weight: normal; text-anchor: end; } .r { fill: transparent; stroke: #c3c3c3; stroke-width: 1; } .l { stroke: 1; } .i { fill: #c2c7ce; stroke: #c2c7ce; } .i.ix { fill: #afb3b6; stroke: #000; } .fa { fill: transparent; overflow: visible; } .fa .bg.hover { fill: #f7f7f7; } .c { cy: 12; r: 4; stroke: #d2d2dc; fill: #d2d2dc; } .hr { fill: transparent; stroke: #323c46; stroke-opacity: 0.035; stroke-width: 13; } .dc { stroke: #fa5a3c; fill: #fa5a3c; } .x { stroke: white; stroke-width: 1; } .hl .th { fill: #1b9bff; } .hl .tht {  } .fhl .bg { fill: #e7f4ff; } .fhls .bg {  } .r.hl { stroke: #1b9bff; } .dim { opacity: 0.25; }</style><g class="drawing-wrapper" transform="translate(518.4285714285713, 697.5628571428575) scale(1,1)"><g class="rs"><path d="M -385.07 -135.62 m -1, 0 a 1,1 0 1,0 2,0 a 1,1 0 1,0 -2,0 M -385.07 -135.62 m -0.5, 0 a 0.5,0.5 0 1,0 1,0 a 0.5,0.5 0 1,0 -1,0  M-385.07 -135.62 L-385.07 -135.62 -373.07 -135.62 M -385.07 -129.62 m -1, 0 a 1,1 0 1,0 2,0 a 1,1 0 1,0 -2,0 M -385.07 -129.62 m -0.5, 0 a 0.5,0.5 0 1,0 1,0 a 0.5,0.5 0 1,0 -1,0  M-385.07 -129.62 L-385.07 -129.62 -378.07 -135.62 -385.07 -141.62 M -385.07 -141.62 m -1, 0 a 1,1 0 1,0 2,0 a 1,1 0 1,0 -2,0 M -385.07 -141.62 m -0.5, 0 a 0.5,0.5 0 1,0 1,0 a 0.5,0.5 0 1,0 -1,0  M-373.07 -135.62 Q -353.57 -135.62, -334.08 17.24 T -295.1 170.1 M -283.1 170.1 m -1, 0 a 1,1 0 1,0 2,0 a 1,1 0 1,0 -2,0 M -283.1 170.1 m -0.5, 0 a 0.5,0.5 0 1,0 1,0 a 0.5,0.5 0 1,0 -1,0  M-283.1 170.1 L-283.1 170.1 -295.1 170.1 M-289.1 176.1 L-289.1 176.1 -289.1 164.1" id="h880656739" class="r"></path><path d="M -96.67 -229.19 m -1, 0 a 1,1 0 1,0 2,0 a 1,1 0 1,0 -2,0 M -96.67 -229.19 m -0.5, 0 a 0.5,0.5 0 1,0 1,0 a 0.5,0.5 0 1,0 -1,0  M-96.67 -229.19 L-96.67 -229.19 -108.67 -229.19 M -96.67 -223.19 m -1, 0 a 1,1 0 1,0 2,0 a 1,1 0 1,0 -2,0 M -96.67 -223.19 m -0.5, 0 a 0.5,0.5 0 1,0 1,0 a 0.5,0.5 0 1,0 -1,0  M-96.67 -223.19 L-96.67 -223.19 -103.67 -229.19 -96.67 -235.19 M -96.67 -235.19 m -1, 0 a 1,1 0 1,0 2,0 a 1,1 0 1,0 -2,0 M -96.67 -235.19 m -0.5, 0 a 0.5,0.5 0 1,0 1,0 a 0.5,0.5 0 1,0 -1,0  M-108.67 -229.19 Q -174.77 -229.19, -240.87 -219.9 T -373.07 -210.62 M -385.07 -210.62 m -1, 0 a 1,1 0 1,0 2,0 a 1,1 0 1,0 -2,0 M -385.07 -210.62 m -0.5, 0 a 0.5,0.5 0 1,0 1,0 a 0.5,0.5 0 1,0 -1,0  M-385.07 -210.62 L-385.07 -210.62 -373.07 -210.62 M-379.07 -204.62 L-379.07 -204.62 -379.07 -216.62" id="h1843885431" class="r"></path><path d="M 30.7 -204.19 m -1, 0 a 1,1 0 1,0 2,0 a 1,1 0 1,0 -2,0 M 30.7 -204.19 m -0.5, 0 a 0.5,0.5 0 1,0 1,0 a 0.5,0.5 0 1,0 -1,0  M30.7 -204.19 L30.7 -204.19 42.7 -204.19 M 30.7 -198.19 m -1, 0 a 1,1 0 1,0 2,0 a 1,1 0 1,0 -2,0 M 30.7 -198.19 m -0.5, 0 a 0.5,0.5 0 1,0 1,0 a 0.5,0.5 0 1,0 -1,0  M30.7 -198.19 L30.7 -198.19 37.7 -204.19 30.7 -210.19 M 30.7 -210.19 m -1, 0 a 1,1 0 1,0 2,0 a 1,1 0 1,0 -2,0 M 30.7 -210.19 m -0.5, 0 a 0.5,0.5 0 1,0 1,0 a 0.5,0.5 0 1,0 -1,0  M42.7 -204.19 Q 147.3 -204.19, 251.9 -213.83 T 461.1 -223.47000000000003 M 473.1 -223.47000000000003 m -1, 0 a 1,1 0 1,0 2,0 a 1,1 0 1,0 -2,0 M 473.1 -223.47000000000003 m -0.5, 0 a 0.5,0.5 0 1,0 1,0 a 0.5,0.5 0 1,0 -1,0  M473.1 -223.47000000000003 L473.1 -223.47000000000003 461.1 -223.47000000000003 M467.1 -217.47000000000003 L467.1 -217.47000000000003 467.1 -229.47000000000003" id="h3506053639" class="r"></path><path d="M -96.67 -179.19 m -1, 0 a 1,1 0 1,0 2,0 a 1,1 0 1,0 -2,0 M -96.67 -179.19 m -0.5, 0 a 0.5,0.5 0 1,0 1,0 a 0.5,0.5 0 1,0 -1,0  M-96.67 -179.19 L-96.67 -179.19 -108.67 -179.19 M -96.67 -173.19 m -1, 0 a 1,1 0 1,0 2,0 a 1,1 0 1,0 -2,0 M -96.67 -173.19 m -0.5, 0 a 0.5,0.5 0 1,0 1,0 a 0.5,0.5 0 1,0 -1,0  M-96.67 -173.19 L-96.67 -173.19 -103.67 -179.19 -96.67 -185.19 M -96.67 -185.19 m -1, 0 a 1,1 0 1,0 2,0 a 1,1 0 1,0 -2,0 M -96.67 -185.19 m -0.5, 0 a 0.5,0.5 0 1,0 1,0 a 0.5,0.5 0 1,0 -1,0  M-108.67 -179.19 Q -159.1 -179.19, -209.53 -294.54 T -310.39 -409.9 M -322.39 -409.9 m -1, 0 a 1,1 0 1,0 2,0 a 1,1 0 1,0 -2,0 M -322.39 -409.9 m -0.5, 0 a 0.5,0.5 0 1,0 1,0 a 0.5,0.5 0 1,0 -1,0  M-322.39 -409.9 L-322.39 -409.9 -310.39 -409.9 M-316.39 -403.9 L-316.39 -403.9 -316.39 -415.9" id="h2775167516" class="r"></path><path d="M -75.71 210.57 m -1, 0 a 1,1 0 1,0 2,0 a 1,1 0 1,0 -2,0 M -75.71 210.57 m -0.5, 0 a 0.5,0.5 0 1,0 1,0 a 0.5,0.5 0 1,0 -1,0  M-75.71 210.57 L-75.71 210.57 -87.71 210.57 M -75.71 216.57 m -1, 0 a 1,1 0 1,0 2,0 a 1,1 0 1,0 -2,0 M -75.71 216.57 m -0.5, 0 a 0.5,0.5 0 1,0 1,0 a 0.5,0.5 0 1,0 -1,0  M-75.71 216.57 L-75.71 216.57 -82.71 210.57 -75.71 204.57 M -75.71 204.57 m -1, 0 a 1,1 0 1,0 2,0 a 1,1 0 1,0 -2,0 M -75.71 204.57 m -0.5, 0 a 0.5,0.5 0 1,0 1,0 a 0.5,0.5 0 1,0 -1,0  M-87.71 210.57 Q -159.05 210.57, -230.39 -0.03 T -373.07 -210.62 M -385.07 -210.62 m -1, 0 a 1,1 0 1,0 2,0 a 1,1 0 1,0 -2,0 M -385.07 -210.62 m -0.5, 0 a 0.5,0.5 0 1,0 1,0 a 0.5,0.5 0 1,0 -1,0  M-385.07 -210.62 L-385.07 -210.62 -373.07 -210.62 M-379.07 -204.62 L-379.07 -204.62 -379.07 -216.62" id="h2549768084" class="r"></path><path d="M 34.29 235.57 m -1, 0 a 1,1 0 1,0 2,0 a 1,1 0 1,0 -2,0 M 34.29 235.57 m -0.5, 0 a 0.5,0.5 0 1,0 1,0 a 0.5,0.5 0 1,0 -1,0  M34.29 235.57 L34.29 235.57 46.29 235.57 M 34.29 241.57 m -1, 0 a 1,1 0 1,0 2,0 a 1,1 0 1,0 -2,0 M 34.29 241.57 m -0.5, 0 a 0.5,0.5 0 1,0 1,0 a 0.5,0.5 0 1,0 -1,0  M34.29 241.57 L34.29 241.57 41.29 235.57 34.29 229.57 M 34.29 229.57 m -1, 0 a 1,1 0 1,0 2,0 a 1,1 0 1,0 -2,0 M 34.29 229.57 m -0.5, 0 a 0.5,0.5 0 1,0 1,0 a 0.5,0.5 0 1,0 -1,0  M46.29 235.57 Q 150 235.57, 253.7 6.05 T 461.1 -223.47000000000003 M 473.1 -223.47000000000003 m -1, 0 a 1,1 0 1,0 2,0 a 1,1 0 1,0 -2,0 M 473.1 -223.47000000000003 m -0.5, 0 a 0.5,0.5 0 1,0 1,0 a 0.5,0.5 0 1,0 -1,0  M473.1 -223.47000000000003 L473.1 -223.47000000000003 461.1 -223.47000000000003 M467.1 -217.47000000000003 L467.1 -217.47000000000003 467.1 -229.47000000000003" id="h3044677966" class="r"></path><path d="M -98.57 3.8999999999999986 m -1, 0 a 1,1 0 1,0 2,0 a 1,1 0 1,0 -2,0 M -98.57 3.8999999999999986 m -0.5, 0 a 0.5,0.5 0 1,0 1,0 a 0.5,0.5 0 1,0 -1,0  M-98.57 3.8999999999999986 L-98.57 3.8999999999999986 -110.57 3.8999999999999986 M -98.57 9.899999999999999 m -1, 0 a 1,1 0 1,0 2,0 a 1,1 0 1,0 -2,0 M -98.57 9.899999999999999 m -0.5, 0 a 0.5,0.5 0 1,0 1,0 a 0.5,0.5 0 1,0 -1,0  M-98.57 9.899999999999999 L-98.57 9.899999999999999 -105.57 3.8999999999999986 -98.57 -2.1000000000000014 M -98.57 -2.1000000000000014 m -1, 0 a 1,1 0 1,0 2,0 a 1,1 0 1,0 -2,0 M -98.57 -2.1000000000000014 m -0.5, 0 a 0.5,0.5 0 1,0 1,0 a 0.5,0.5 0 1,0 -1,0  M-110.57 3.8999999999999986 Q -176.19 3.8999999999999986, -241.82 -103.36 T -373.07 -210.62 M -385.07 -210.62 m -1, 0 a 1,1 0 1,0 2,0 a 1,1 0 1,0 -2,0 M -385.07 -210.62 m -0.5, 0 a 0.5,0.5 0 1,0 1,0 a 0.5,0.5 0 1,0 -1,0  M-385.07 -210.62 L-385.07 -210.62 -373.07 -210.62 M-379.07 -204.62 L-379.07 -204.62 -379.07 -216.62" id="h1570257809" class="r"></path><path d="M 32.12 28.9 m -1, 0 a 1,1 0 1,0 2,0 a 1,1 0 1,0 -2,0 M 32.12 28.9 m -0.5, 0 a 0.5,0.5 0 1,0 1,0 a 0.5,0.5 0 1,0 -1,0  M32.12 28.9 L32.12 28.9 44.12 28.9 M 32.12 34.9 m -1, 0 a 1,1 0 1,0 2,0 a 1,1 0 1,0 -2,0 M 32.12 34.9 m -0.5, 0 a 0.5,0.5 0 1,0 1,0 a 0.5,0.5 0 1,0 -1,0  M32.12 34.9 L32.12 34.9 39.12 28.9 32.12 22.9 M 32.12 22.9 m -1, 0 a 1,1 0 1,0 2,0 a 1,1 0 1,0 -2,0 M 32.12 22.9 m -0.5, 0 a 0.5,0.5 0 1,0 1,0 a 0.5,0.5 0 1,0 -1,0  M44.12 28.9 Q 148.37 28.9, 252.61 -97.29 T 461.1 -223.47000000000003 M 473.1 -223.47000000000003 m -1, 0 a 1,1 0 1,0 2,0 a 1,1 0 1,0 -2,0 M 473.1 -223.47000000000003 m -0.5, 0 a 0.5,0.5 0 1,0 1,0 a 0.5,0.5 0 1,0 -1,0  M473.1 -223.47000000000003 L473.1 -223.47000000000003 461.1 -223.47000000000003 M467.1 -217.47000000000003 L467.1 -217.47000000000003 467.1 -229.47000000000003" id="h693707483" class="r"></path><path d="M -101.25 -610.56 m -1, 0 a 1,1 0 1,0 2,0 a 1,1 0 1,0 -2,0 M -101.25 -610.56 m -0.5, 0 a 0.5,0.5 0 1,0 1,0 a 0.5,0.5 0 1,0 -1,0  M-101.25 -610.56 L-101.25 -610.56 -113.25 -610.56 M -101.25 -604.56 m -1, 0 a 1,1 0 1,0 2,0 a 1,1 0 1,0 -2,0 M -101.25 -604.56 m -0.5, 0 a 0.5,0.5 0 1,0 1,0 a 0.5,0.5 0 1,0 -1,0  M-101.25 -604.56 L-101.25 -604.56 -108.25 -610.56 -101.25 -616.56 M -101.25 -616.56 m -1, 0 a 1,1 0 1,0 2,0 a 1,1 0 1,0 -2,0 M -101.25 -616.56 m -0.5, 0 a 0.5,0.5 0 1,0 1,0 a 0.5,0.5 0 1,0 -1,0  M-113.25 -610.56 Q -178.2 -610.56, -243.16 -410.59 T -373.07 -210.62 M -385.07 -210.62 m -1, 0 a 1,1 0 1,0 2,0 a 1,1 0 1,0 -2,0 M -385.07 -210.62 m -0.5, 0 a 0.5,0.5 0 1,0 1,0 a 0.5,0.5 0 1,0 -1,0  M-385.07 -210.62 L-385.07 -210.62 -373.07 -210.62 M-379.07 -204.62 L-379.07 -204.62 -379.07 -216.62" id="h2776821882" class="r"></path><path d="M 51.49 -585.56 m -1, 0 a 1,1 0 1,0 2,0 a 1,1 0 1,0 -2,0 M 51.49 -585.56 m -0.5, 0 a 0.5,0.5 0 1,0 1,0 a 0.5,0.5 0 1,0 -1,0  M51.49 -585.56 L51.49 -585.56 63.49 -585.56 M 51.49 -579.56 m -1, 0 a 1,1 0 1,0 2,0 a 1,1 0 1,0 -2,0 M 51.49 -579.56 m -0.5, 0 a 0.5,0.5 0 1,0 1,0 a 0.5,0.5 0 1,0 -1,0  M51.49 -579.56 L51.49 -579.56 58.49 -585.56 51.49 -591.56 M 51.49 -591.56 m -1, 0 a 1,1 0 1,0 2,0 a 1,1 0 1,0 -2,0 M 51.49 -591.56 m -0.5, 0 a 0.5,0.5 0 1,0 1,0 a 0.5,0.5 0 1,0 -1,0  M63.49 -585.56 Q 162.9 -585.56, 262.3 -404.51 T 461.1 -223.47000000000003 M 473.1 -223.47000000000003 m -1, 0 a 1,1 0 1,0 2,0 a 1,1 0 1,0 -2,0 M 473.1 -223.47000000000003 m -0.5, 0 a 0.5,0.5 0 1,0 1,0 a 0.5,0.5 0 1,0 -1,0  M473.1 -223.47000000000003 L473.1 -223.47000000000003 461.1 -223.47000000000003 M467.1 -217.47000000000003 L467.1 -217.47000000000003 467.1 -229.47000000000003" id="h3791173983" class="r"></path><path d="M -101.25 -560.56 m -1, 0 a 1,1 0 1,0 2,0 a 1,1 0 1,0 -2,0 M -101.25 -560.56 m -0.5, 0 a 0.5,0.5 0 1,0 1,0 a 0.5,0.5 0 1,0 -1,0  M-101.25 -560.56 L-101.25 -560.56 -113.25 -560.56 M -101.25 -554.56 m -1, 0 a 1,1 0 1,0 2,0 a 1,1 0 1,0 -2,0 M -101.25 -554.56 m -0.5, 0 a 0.5,0.5 0 1,0 1,0 a 0.5,0.5 0 1,0 -1,0  M-101.25 -554.56 L-101.25 -554.56 -108.25 -560.56 -101.25 -566.56 M -101.25 -566.56 m -1, 0 a 1,1 0 1,0 2,0 a 1,1 0 1,0 -2,0 M -101.25 -566.56 m -0.5, 0 a 0.5,0.5 0 1,0 1,0 a 0.5,0.5 0 1,0 -1,0  M-113.25 -560.56 Q -162.53 -560.56, -211.82 -485.23 T -310.39 -409.9 M -322.39 -409.9 m -1, 0 a 1,1 0 1,0 2,0 a 1,1 0 1,0 -2,0 M -322.39 -409.9 m -0.5, 0 a 0.5,0.5 0 1,0 1,0 a 0.5,0.5 0 1,0 -1,0  M-322.39 -409.9 L-322.39 -409.9 -310.39 -409.9 M-316.39 -403.9 L-316.39 -403.9 -316.39 -415.9" id="h1373223295" class="r"></path><path d="M 51.49 -310.55999999999995 m -1, 0 a 1,1 0 1,0 2,0 a 1,1 0 1,0 -2,0 M 51.49 -310.55999999999995 m -0.5, 0 a 0.5,0.5 0 1,0 1,0 a 0.5,0.5 0 1,0 -1,0  M51.49 -310.55999999999995 L51.49 -310.55999999999995 63.49 -310.55999999999995 M 51.49 -304.55999999999995 m -1, 0 a 1,1 0 1,0 2,0 a 1,1 0 1,0 -2,0 M 51.49 -304.55999999999995 m -0.5, 0 a 0.5,0.5 0 1,0 1,0 a 0.5,0.5 0 1,0 -1,0  M51.49 -304.55999999999995 L51.49 -304.55999999999995 58.49 -310.55999999999995 51.49 -316.55999999999995 M 51.49 -316.55999999999995 m -1, 0 a 1,1 0 1,0 2,0 a 1,1 0 1,0 -2,0 M 51.49 -316.55999999999995 m -0.5, 0 a 0.5,0.5 0 1,0 1,0 a 0.5,0.5 0 1,0 -1,0  M63.49 -310.55999999999995 Q 78.61 -310.55999999999995, 93.73 -319.51 T 123.96000000000001 -328.47 M 135.96 -328.47 m -1, 0 a 1,1 0 1,0 2,0 a 1,1 0 1,0 -2,0 M 135.96 -328.47 m -0.5, 0 a 0.5,0.5 0 1,0 1,0 a 0.5,0.5 0 1,0 -1,0  M135.96 -328.47 L135.96 -328.47 123.96000000000001 -328.47 M129.96 -322.47 L129.96 -322.47 129.96 -334.47" id="h2405702858" class="r"></path></g><g class="hrs"></g><g class="ts"><svg width="147.37" height="175" x="-469.76" y="-466.9" id="h2462661270" class="t"><rect height="40" width="147.37" class="th"></rect><text x="13" y="25" class="tht">constructors</text><rect height="135" width="147.37" class="t-bg"></rect><text x="13" y="61" class="tf pk">constructorid<tspan x="134.37" class="ty">int</tspan></text><path d="M7,14A2,2 0 0,1 5,12A2,2 0 0,1 7,10A2,2 0 0,1 9,12A2,2 0 0,1 7,14M12.65,10C11.83,7.67 9.61,6 7, 6A6, 6 0 0, 0 1, 12A6, 6 0 0, 0 7, 18C9.61, 18 11.83, 16.33 12.65, 14H17V18H21V14H23V10H12.65Z" class="i pk" transform="translate(101.696171875, 48) scale(0.65)"></path><text x="13" y="86" class="tf">constructorref<tspan x="134.37" class="ty">text</tspan></text><text x="13" y="111" class="tf">name<tspan x="134.37" class="ty">text</tspan></text><text x="13" y="136" class="tf">nationality<tspan x="134.37" class="ty">text</tspan></text><text x="13" y="161" class="tf">url<tspan x="134.37" class="ty">text</tspan></text></svg><svg width="119.38" height="200" x="473.1" y="-280.47" id="h176053269" class="t"><rect height="40" width="119.38" class="th"></rect><text x="13" y="25" class="tht">driver</text><rect height="160" width="119.38" class="t-bg"></rect><text x="13" y="61" class="tf pk">driverid<tspan x="106.38" class="ty">int</tspan></text><path d="M7,14A2,2 0 0,1 5,12A2,2 0 0,1 7,10A2,2 0 0,1 9,12A2,2 0 0,1 7,14M12.65,10C11.83,7.67 9.61,6 7, 6A6, 6 0 0, 0 1, 12A6, 6 0 0, 0 7, 18C9.61, 18 11.83, 16.33 12.65, 14H17V18H21V14H23V10H12.65Z" class="i pk" transform="translate(73.706171875, 48) scale(0.65)"></path><text x="13" y="86" class="tf">firstname<tspan x="106.38" class="ty">text</tspan></text><text x="13" y="111" class="tf">lastname<tspan x="106.38" class="ty">text</tspan></text><text x="13" y="136" class="tf">dob<tspan x="106.38" class="ty">date</tspan></text><text x="13" y="161" class="tf">nationality<tspan x="106.38" class="ty">text</tspan></text><text x="13" y="186" class="tf">url<tspan x="106.38" class="ty">text</tspan></text></svg><svg width="136.7" height="250" x="-283.1" y="113.1" id="h3970851734" class="t"><rect height="40" width="136.7" class="th"></rect><text x="13" y="25" class="tht">circuit</text><rect height="210" width="136.7" class="t-bg"></rect><text x="13" y="61" class="tf pk">circuitid<tspan x="123.69999999999999" class="ty">int</tspan></text><path d="M7,14A2,2 0 0,1 5,12A2,2 0 0,1 7,10A2,2 0 0,1 9,12A2,2 0 0,1 7,14M12.65,10C11.83,7.67 9.61,6 7, 6A6, 6 0 0, 0 1, 12A6, 6 0 0, 0 7, 18C9.61, 18 11.83, 16.33 12.65, 14H17V18H21V14H23V10H12.65Z" class="i pk" transform="translate(91.02617187499999, 48) scale(0.65)"></path><text x="13" y="86" class="tf">circuitref<tspan x="123.69999999999999" class="ty">text</tspan></text><text x="13" y="111" class="tf">nameofcircuit<tspan x="123.69999999999999" class="ty">text</tspan></text><text x="13" y="136" class="tf">location<tspan x="123.69999999999999" class="ty">text</tspan></text><text x="13" y="161" class="tf">lat<tspan x="123.69999999999999" class="ty">dec</tspan></text><text x="13" y="186" class="tf">lng<tspan x="123.69999999999999" class="ty">dec</tspan></text><text x="13" y="211" class="tf">alt<tspan x="123.69999999999999" class="ty">dec</tspan></text><text x="13" y="236" class="tf">url<tspan x="123.69999999999999" class="ty">text</tspan></text></svg><svg width="120.03" height="100" x="135.96" y="-385.47" id="h2385436622" class="t"><rect height="40" width="120.03" class="th"></rect><text x="13" y="25" class="tht">status</text><rect height="60" width="120.03" class="t-bg"></rect><text x="13" y="61" class="tf pk">statusid<tspan x="107.03" class="ty">int</tspan></text><path d="M7,14A2,2 0 0,1 5,12A2,2 0 0,1 7,10A2,2 0 0,1 9,12A2,2 0 0,1 7,14M12.65,10C11.83,7.67 9.61,6 7, 6A6, 6 0 0, 0 1, 12A6, 6 0 0, 0 7, 18C9.61, 18 11.83, 16.33 12.65, 14H17V18H21V14H23V10H12.65Z" class="i pk" transform="translate(74.356171875, 48) scale(0.65)"></path><text x="13" y="86" class="tf">status<tspan x="107.03" class="ty">text</tspan></text></svg><svg width="111.36" height="250" x="-496.43" y="-267.62" id="h2022149734" class="t"><rect height="40" width="111.36" class="th"></rect><text x="13" y="25" class="tht">race</text><rect height="210" width="111.36" class="t-bg"></rect><text x="13" y="61" class="tf pk">raceid<tspan x="98.36" class="ty">int</tspan></text><path d="M7,14A2,2 0 0,1 5,12A2,2 0 0,1 7,10A2,2 0 0,1 9,12A2,2 0 0,1 7,14M12.65,10C11.83,7.67 9.61,6 7, 6A6, 6 0 0, 0 1, 12A6, 6 0 0, 0 7, 18C9.61, 18 11.83, 16.33 12.65, 14H17V18H21V14H23V10H12.65Z" class="i pk" transform="translate(65.686171875, 48) scale(0.65)"></path><text x="13" y="86" class="tf">year<tspan x="98.36" class="ty">int</tspan></text><text x="13" y="111" class="tf">round<tspan x="98.36" class="ty">int</tspan></text><text x="13" y="136" class="tf fk">circuitid<tspan x="98.36" class="ty">int</tspan></text><text x="13" y="161" class="tf">name<tspan x="98.36" class="ty">text</tspan></text><text x="13" y="186" class="tf">date<tspan x="98.36" class="ty">date</tspan></text><text x="13" y="211" class="tf">time<tspan x="98.36" class="ty">time</tspan></text><text x="13" y="236" class="tf">url<tspan x="98.36" class="ty">text</tspan></text></svg><svg width="127.37" height="225" x="-96.67" y="-286.19" id="h3162806416" class="t"><rect height="40" width="127.37" class="th"></rect><text x="13" y="25" class="tht">qualifying</text><rect height="185" width="127.37" class="t-bg"></rect><text x="13" y="61" class="tf fk">raceid<tspan x="114.37" class="ty">int</tspan></text><text x="13" y="86" class="tf fk">driverid<tspan x="114.37" class="ty">int</tspan></text><text x="13" y="111" class="tf fk">constructorid<tspan x="114.37" class="ty">int</tspan></text><text x="13" y="136" class="tf">position<tspan x="114.37" class="ty">int</tspan></text><text x="13" y="161" class="tf">q1<tspan x="114.37" class="ty">time</tspan></text><text x="13" y="186" class="tf">q2<tspan x="114.37" class="ty">time</tspan></text><text x="13" y="211" class="tf">q3<tspan x="114.37" class="ty">time</tspan></text></svg><svg width="110" height="175" x="-75.71" y="153.57" id="h1966339288" class="t"><rect height="40" width="110" class="th"></rect><text x="13" y="25" class="tht">laptime</text><rect height="135" width="110" class="t-bg"></rect><text x="13" y="61" class="tf fk">raceid<tspan x="97" class="ty">int</tspan></text><text x="13" y="86" class="tf fk">driverid<tspan x="97" class="ty">int</tspan></text><text x="13" y="111" class="tf">lap<tspan x="97" class="ty">int</tspan></text><text x="13" y="136" class="tf">position<tspan x="97" class="ty">int</tspan></text><text x="13" y="161" class="tf">time(milli)<tspan x="97" class="ty">int</tspan></text></svg><svg width="130.69" height="200" x="-98.57" y="-53.1" id="h1443435449" class="t"><rect height="40" width="130.69" class="th"></rect><text x="13" y="25" class="tht">pitstop</text><rect height="160" width="130.69" class="t-bg"></rect><text x="13" y="61" class="tf fk">raceid<tspan x="117.69" class="ty">int</tspan></text><text x="13" y="86" class="tf fk">driverid<tspan x="117.69" class="ty">int</tspan></text><text x="13" y="111" class="tf">stopNumber<tspan x="117.69" class="ty">int</tspan></text><text x="13" y="136" class="tf">lap<tspan x="117.69" class="ty">int</tspan></text><text x="13" y="161" class="tf">time<tspan x="117.69" class="ty">time</tspan></text><text x="13" y="186" class="tf">duration(milli)<tspan x="117.69" class="ty">int</tspan></text></svg><svg width="152.74" height="375" x="-101.25" y="-667.56" id="h3479580529" class="t"><rect height="40" width="152.74" class="th"></rect><text x="13" y="25" class="tht">results</text><rect height="335" width="152.74" class="t-bg"></rect><text x="13" y="61" class="tf fk">raceid<tspan x="139.74" class="ty">int</tspan></text><text x="13" y="86" class="tf fk">driverid<tspan x="139.74" class="ty">int</tspan></text><text x="13" y="111" class="tf fk">constructorid<tspan x="139.74" class="ty">int</tspan></text><text x="13" y="136" class="tf">grid<tspan x="139.74" class="ty">int</tspan></text><text x="13" y="161" class="tf">position<tspan x="139.74" class="ty">int</tspan></text><text x="13" y="186" class="tf">points<tspan x="139.74" class="ty">float</tspan></text><text x="13" y="211" class="tf">laps<tspan x="139.74" class="ty">int</tspan></text><text x="13" y="236" class="tf">time(milli)<tspan x="139.74" class="ty">int</tspan></text><text x="13" y="261" class="tf">fastestlap<tspan x="139.74" class="ty">int</tspan></text><text x="13" y="286" class="tf">fastestlaprank<tspan x="139.74" class="ty">int</tspan></text><text x="13" y="311" class="tf">fastestlaptime<tspan x="139.74" class="ty">time</tspan></text><text x="13" y="336" class="tf">fastestlapspeed<tspan x="139.74" class="ty">float</tspan></text><text x="13" y="361" class="tf fk">statusid<tspan x="139.74" class="ty">int</tspan></text></svg></g></g><text class="qdbd-link" x="10" y="20">www.quickdatabasediagrams.com</text></svg>