<svg class="diagram-root" style="background: #f5f6f6" xmlns="http://www.w3.org/2000/svg" xmlns:xlink="http://www.w3.org/1999/xlink"><style>.diagram-root { font-family: "Helvetica Neue", sans-serif; font-size: 12px; } .t { overflow: visible; } .t-bg { y: 40; fill: #fff;   } .th { fill: #005aa0;   } .tht { fill: #fff; font-size: 14px;  } .tf { fill: #323c46; overflow: visible; } .tf.pk { fill: #005aa0; font-weight: bold; } .tf.fk { font-weight: bold; } .ty { fill: #adb1b5; font-weight: normal; text-anchor: end; } .r { fill: transparent; stroke: #c3c3c3; stroke-width: 1; } .l { stroke: 1; } .i { fill: #c2c7ce; stroke: #c2c7ce; } .i.ix { fill: #afb3b6; stroke: #000; } .fa { fill: transparent; overflow: visible; } .fa .bg.hover { fill: #f7f7f7; } .c { cy: 12; r: 4; stroke: #d2d2dc; fill: #d2d2dc; } .hr { fill: transparent; stroke: #323c46; stroke-opacity: 0.035; stroke-width: 13; } .dc { stroke: #fa5a3c; fill: #fa5a3c; } .x { stroke: white; stroke-width: 1; } .hl .th { fill: #1b9bff; } .hl .tht {  } .fhl .bg { fill: #e7f4ff; } .fhls .bg {  } .r.hl { stroke: #1b9bff; } .dim { opacity: 0.25; }</style><g class="drawing-wrapper" transform="translate(223.39, 524.5533333333335) scale(1,1)"><g class="rs"><path d="M -82.78 87.97 m -1, 0 a 1,1 0 1,0 2,0 a 1,1 0 1,0 -2,0 M -82.78 87.97 m -0.5, 0 a 0.5,0.5 0 1,0 1,0 a 0.5,0.5 0 1,0 -1,0  M-82.78 87.97 L-82.78 87.97 -70.78 87.97 M -82.78 93.97 m -1, 0 a 1,1 0 1,0 2,0 a 1,1 0 1,0 -2,0 M -82.78 93.97 m -0.5, 0 a 0.5,0.5 0 1,0 1,0 a 0.5,0.5 0 1,0 -1,0  M-82.78 93.97 L-82.78 93.97 -75.78 87.97 -82.78 81.97 M -82.78 81.97 m -1, 0 a 1,1 0 1,0 2,0 a 1,1 0 1,0 -2,0 M -82.78 81.97 m -0.5, 0 a 0.5,0.5 0 1,0 1,0 a 0.5,0.5 0 1,0 -1,0  M-70.78 87.97 Q -53.51 87.97, -36.25 204.5 T -1.7200000000000006 321.03 M 10.28 321.03 m -1, 0 a 1,1 0 1,0 2,0 a 1,1 0 1,0 -2,0 M 10.28 321.03 m -0.5, 0 a 0.5,0.5 0 1,0 1,0 a 0.5,0.5 0 1,0 -1,0  M10.28 321.03 L10.28 321.03 -1.7200000000000006 321.03 M4.279999999999999 327.03 L4.279999999999999 327.03 4.279999999999999 315.03" id="h388411470" class="r"></path><path d="M 369.45 -53.42 m -1, 0 a 1,1 0 1,0 2,0 a 1,1 0 1,0 -2,0 M 369.45 -53.42 m -0.5, 0 a 0.5,0.5 0 1,0 1,0 a 0.5,0.5 0 1,0 -1,0  M369.45 -53.42 L369.45 -53.42 357.45 -53.42 M 369.45 -47.42 m -1, 0 a 1,1 0 1,0 2,0 a 1,1 0 1,0 -2,0 M 369.45 -47.42 m -0.5, 0 a 0.5,0.5 0 1,0 1,0 a 0.5,0.5 0 1,0 -1,0  M369.45 -47.42 L369.45 -47.42 362.45 -53.42 369.45 -59.42 M 369.45 -59.42 m -1, 0 a 1,1 0 1,0 2,0 a 1,1 0 1,0 -2,0 M 369.45 -59.42 m -0.5, 0 a 0.5,0.5 0 1,0 1,0 a 0.5,0.5 0 1,0 -1,0  M357.45 -53.42 Q 250.39 -53.42, 143.33 -20.23 T -70.78 12.969999999999999 M -82.78 12.969999999999999 m -1, 0 a 1,1 0 1,0 2,0 a 1,1 0 1,0 -2,0 M -82.78 12.969999999999999 m -0.5, 0 a 0.5,0.5 0 1,0 1,0 a 0.5,0.5 0 1,0 -1,0  M-82.78 12.969999999999999 L-82.78 12.969999999999999 -70.78 12.969999999999999 M-76.78 18.97 L-76.78 18.97 -76.78 6.969999999999999" id="h3332286414" class="r"></path><path d="M 499.48 -28.42 m -1, 0 a 1,1 0 1,0 2,0 a 1,1 0 1,0 -2,0 M 499.48 -28.42 m -0.5, 0 a 0.5,0.5 0 1,0 1,0 a 0.5,0.5 0 1,0 -1,0  M499.48 -28.42 L499.48 -28.42 511.48 -28.42 M 499.48 -22.42 m -1, 0 a 1,1 0 1,0 2,0 a 1,1 0 1,0 -2,0 M 499.48 -22.42 m -0.5, 0 a 0.5,0.5 0 1,0 1,0 a 0.5,0.5 0 1,0 -1,0  M499.48 -22.42 L499.48 -22.42 506.48 -28.42 499.48 -34.42 M 499.48 -34.42 m -1, 0 a 1,1 0 1,0 2,0 a 1,1 0 1,0 -2,0 M 499.48 -34.42 m -0.5, 0 a 0.5,0.5 0 1,0 1,0 a 0.5,0.5 0 1,0 -1,0  M511.48 -28.42 Q 619.36 -28.42, 727.24 -39.81 T 943 -51.2 M 955 -51.2 m -1, 0 a 1,1 0 1,0 2,0 a 1,1 0 1,0 -2,0 M 955 -51.2 m -0.5, 0 a 0.5,0.5 0 1,0 1,0 a 0.5,0.5 0 1,0 -1,0  M955 -51.2 L955 -51.2 943 -51.2 M949 -45.2 L949 -45.2 949 -57.2" id="h202997451" class="r"></path><path d="M 369.45 -3.4200000000000017 m -1, 0 a 1,1 0 1,0 2,0 a 1,1 0 1,0 -2,0 M 369.45 -3.4200000000000017 m -0.5, 0 a 0.5,0.5 0 1,0 1,0 a 0.5,0.5 0 1,0 -1,0  M369.45 -3.4200000000000017 L369.45 -3.4200000000000017 357.45 -3.4200000000000017 M 369.45 2.5799999999999983 m -1, 0 a 1,1 0 1,0 2,0 a 1,1 0 1,0 -2,0 M 369.45 2.5799999999999983 m -0.5, 0 a 0.5,0.5 0 1,0 1,0 a 0.5,0.5 0 1,0 -1,0  M369.45 2.5799999999999983 L369.45 2.5799999999999983 362.45 -3.4200000000000017 369.45 -9.420000000000002 M 369.45 -9.420000000000002 m -1, 0 a 1,1 0 1,0 2,0 a 1,1 0 1,0 -2,0 M 369.45 -9.420000000000002 m -0.5, 0 a 0.5,0.5 0 1,0 1,0 a 0.5,0.5 0 1,0 -1,0  M357.45 -3.4200000000000017 Q 258.25 -3.4200000000000017, 159.04 -131.75 T -39.36 -260.09 M -51.36 -260.09 m -1, 0 a 1,1 0 1,0 2,0 a 1,1 0 1,0 -2,0 M -51.36 -260.09 m -0.5, 0 a 0.5,0.5 0 1,0 1,0 a 0.5,0.5 0 1,0 -1,0  M-51.36 -260.09 L-51.36 -260.09 -39.36 -260.09 M-45.36 -254.08999999999997 L-45.36 -254.08999999999997 -45.36 -266.09" id="h1424230413" class="r"></path><path d="M 386.49 405.16 m -1, 0 a 1,1 0 1,0 2,0 a 1,1 0 1,0 -2,0 M 386.49 405.16 m -0.5, 0 a 0.5,0.5 0 1,0 1,0 a 0.5,0.5 0 1,0 -1,0  M386.49 405.16 L386.49 405.16 374.49 405.16 M 386.49 411.16 m -1, 0 a 1,1 0 1,0 2,0 a 1,1 0 1,0 -2,0 M 386.49 411.16 m -0.5, 0 a 0.5,0.5 0 1,0 1,0 a 0.5,0.5 0 1,0 -1,0  M386.49 411.16 L386.49 411.16 379.49 405.16 386.49 399.16 M 386.49 399.16 m -1, 0 a 1,1 0 1,0 2,0 a 1,1 0 1,0 -2,0 M 386.49 399.16 m -0.5, 0 a 0.5,0.5 0 1,0 1,0 a 0.5,0.5 0 1,0 -1,0  M374.49 405.16 Q 263.18 405.16, 151.86 209.07 T -70.78 12.969999999999999 M -82.78 12.969999999999999 m -1, 0 a 1,1 0 1,0 2,0 a 1,1 0 1,0 -2,0 M -82.78 12.969999999999999 m -0.5, 0 a 0.5,0.5 0 1,0 1,0 a 0.5,0.5 0 1,0 -1,0  M-82.78 12.969999999999999 L-82.78 12.969999999999999 -70.78 12.969999999999999 M-76.78 18.97 L-76.78 18.97 -76.78 6.969999999999999" id="h1559760444" class="r"></path><path d="M 496.49 430.16 m -1, 0 a 1,1 0 1,0 2,0 a 1,1 0 1,0 -2,0 M 496.49 430.16 m -0.5, 0 a 0.5,0.5 0 1,0 1,0 a 0.5,0.5 0 1,0 -1,0  M496.49 430.16 L496.49 430.16 508.49 430.16 M 496.49 436.16 m -1, 0 a 1,1 0 1,0 2,0 a 1,1 0 1,0 -2,0 M 496.49 436.16 m -0.5, 0 a 0.5,0.5 0 1,0 1,0 a 0.5,0.5 0 1,0 -1,0  M496.49 436.16 L496.49 436.16 503.49 430.16 496.49 424.16 M 496.49 424.16 m -1, 0 a 1,1 0 1,0 2,0 a 1,1 0 1,0 -2,0 M 496.49 424.16 m -0.5, 0 a 0.5,0.5 0 1,0 1,0 a 0.5,0.5 0 1,0 -1,0  M508.49 430.16 Q 617.12 430.16, 725.75 189.48 T 943 -51.2 M 955 -51.2 m -1, 0 a 1,1 0 1,0 2,0 a 1,1 0 1,0 -2,0 M 955 -51.2 m -0.5, 0 a 0.5,0.5 0 1,0 1,0 a 0.5,0.5 0 1,0 -1,0  M955 -51.2 L955 -51.2 943 -51.2 M949 -45.2 L949 -45.2 949 -57.2" id="h1754451991" class="r"></path><path d="M 373.5 186.19 m -1, 0 a 1,1 0 1,0 2,0 a 1,1 0 1,0 -2,0 M 373.5 186.19 m -0.5, 0 a 0.5,0.5 0 1,0 1,0 a 0.5,0.5 0 1,0 -1,0  M373.5 186.19 L373.5 186.19 361.5 186.19 M 373.5 192.19 m -1, 0 a 1,1 0 1,0 2,0 a 1,1 0 1,0 -2,0 M 373.5 192.19 m -0.5, 0 a 0.5,0.5 0 1,0 1,0 a 0.5,0.5 0 1,0 -1,0  M373.5 192.19 L373.5 192.19 366.5 186.19 373.5 180.19 M 373.5 180.19 m -1, 0 a 1,1 0 1,0 2,0 a 1,1 0 1,0 -2,0 M 373.5 180.19 m -0.5, 0 a 0.5,0.5 0 1,0 1,0 a 0.5,0.5 0 1,0 -1,0  M361.5 186.19 Q 253.43 186.19, 145.36 99.58 T -70.78 12.969999999999999 M -82.78 12.969999999999999 m -1, 0 a 1,1 0 1,0 2,0 a 1,1 0 1,0 -2,0 M -82.78 12.969999999999999 m -0.5, 0 a 0.5,0.5 0 1,0 1,0 a 0.5,0.5 0 1,0 -1,0  M-82.78 12.969999999999999 L-82.78 12.969999999999999 -70.78 12.969999999999999 M-76.78 18.97 L-76.78 18.97 -76.78 6.969999999999999" id="h1384106712" class="r"></path><path d="M 504.19 211.19 m -1, 0 a 1,1 0 1,0 2,0 a 1,1 0 1,0 -2,0 M 504.19 211.19 m -0.5, 0 a 0.5,0.5 0 1,0 1,0 a 0.5,0.5 0 1,0 -1,0  M504.19 211.19 L504.19 211.19 516.19 211.19 M 504.19 217.19 m -1, 0 a 1,1 0 1,0 2,0 a 1,1 0 1,0 -2,0 M 504.19 217.19 m -0.5, 0 a 0.5,0.5 0 1,0 1,0 a 0.5,0.5 0 1,0 -1,0  M504.19 217.19 L504.19 217.19 511.19 211.19 504.19 205.19 M 504.19 205.19 m -1, 0 a 1,1 0 1,0 2,0 a 1,1 0 1,0 -2,0 M 504.19 205.19 m -0.5, 0 a 0.5,0.5 0 1,0 1,0 a 0.5,0.5 0 1,0 -1,0  M516.19 211.19 Q 622.9 211.19, 729.6 80 T 943 -51.2 M 955 -51.2 m -1, 0 a 1,1 0 1,0 2,0 a 1,1 0 1,0 -2,0 M 955 -51.2 m -0.5, 0 a 0.5,0.5 0 1,0 1,0 a 0.5,0.5 0 1,0 -1,0  M955 -51.2 L955 -51.2 943 -51.2 M949 -45.2 L949 -45.2 949 -57.2" id="h3744590013" class="r"></path><path d="M 360.53 -437.55 m -1, 0 a 1,1 0 1,0 2,0 a 1,1 0 1,0 -2,0 M 360.53 -437.55 m -0.5, 0 a 0.5,0.5 0 1,0 1,0 a 0.5,0.5 0 1,0 -1,0  M360.53 -437.55 L360.53 -437.55 348.53 -437.55 M 360.53 -431.55 m -1, 0 a 1,1 0 1,0 2,0 a 1,1 0 1,0 -2,0 M 360.53 -431.55 m -0.5, 0 a 0.5,0.5 0 1,0 1,0 a 0.5,0.5 0 1,0 -1,0  M360.53 -431.55 L360.53 -431.55 353.53 -437.55 360.53 -443.55 M 360.53 -443.55 m -1, 0 a 1,1 0 1,0 2,0 a 1,1 0 1,0 -2,0 M 360.53 -443.55 m -0.5, 0 a 0.5,0.5 0 1,0 1,0 a 0.5,0.5 0 1,0 -1,0  M348.53 -437.55 Q 243.71 -437.55, 138.88 -212.29 T -70.78 12.969999999999999 M -82.78 12.969999999999999 m -1, 0 a 1,1 0 1,0 2,0 a 1,1 0 1,0 -2,0 M -82.78 12.969999999999999 m -0.5, 0 a 0.5,0.5 0 1,0 1,0 a 0.5,0.5 0 1,0 -1,0  M-82.78 12.969999999999999 L-82.78 12.969999999999999 -70.78 12.969999999999999 M-76.78 18.97 L-76.78 18.97 -76.78 6.969999999999999" id="h3122522887" class="r"></path><path d="M 519.28 -412.55 m -1, 0 a 1,1 0 1,0 2,0 a 1,1 0 1,0 -2,0 M 519.28 -412.55 m -0.5, 0 a 0.5,0.5 0 1,0 1,0 a 0.5,0.5 0 1,0 -1,0  M519.28 -412.55 L519.28 -412.55 531.28 -412.55 M 519.28 -406.55 m -1, 0 a 1,1 0 1,0 2,0 a 1,1 0 1,0 -2,0 M 519.28 -406.55 m -0.5, 0 a 0.5,0.5 0 1,0 1,0 a 0.5,0.5 0 1,0 -1,0  M519.28 -406.55 L519.28 -406.55 526.28 -412.55 519.28 -418.55 M 519.28 -418.55 m -1, 0 a 1,1 0 1,0 2,0 a 1,1 0 1,0 -2,0 M 519.28 -418.55 m -0.5, 0 a 0.5,0.5 0 1,0 1,0 a 0.5,0.5 0 1,0 -1,0  M531.28 -412.55 Q 634.21 -412.55, 737.14 -231.87 T 943 -51.2 M 955 -51.2 m -1, 0 a 1,1 0 1,0 2,0 a 1,1 0 1,0 -2,0 M 955 -51.2 m -0.5, 0 a 0.5,0.5 0 1,0 1,0 a 0.5,0.5 0 1,0 -1,0  M955 -51.2 L955 -51.2 943 -51.2 M949 -45.2 L949 -45.2 949 -57.2" id="h3946412535" class="r"></path><path d="M 360.53 -387.55 m -1, 0 a 1,1 0 1,0 2,0 a 1,1 0 1,0 -2,0 M 360.53 -387.55 m -0.5, 0 a 0.5,0.5 0 1,0 1,0 a 0.5,0.5 0 1,0 -1,0  M360.53 -387.55 L360.53 -387.55 348.53 -387.55 M 360.53 -381.55 m -1, 0 a 1,1 0 1,0 2,0 a 1,1 0 1,0 -2,0 M 360.53 -381.55 m -0.5, 0 a 0.5,0.5 0 1,0 1,0 a 0.5,0.5 0 1,0 -1,0  M360.53 -381.55 L360.53 -381.55 353.53 -387.55 360.53 -393.55 M 360.53 -393.55 m -1, 0 a 1,1 0 1,0 2,0 a 1,1 0 1,0 -2,0 M 360.53 -393.55 m -0.5, 0 a 0.5,0.5 0 1,0 1,0 a 0.5,0.5 0 1,0 -1,0  M348.53 -387.55 Q 251.56 -387.55, 154.58 -323.82 T -39.36 -260.09 M -51.36 -260.09 m -1, 0 a 1,1 0 1,0 2,0 a 1,1 0 1,0 -2,0 M -51.36 -260.09 m -0.5, 0 a 0.5,0.5 0 1,0 1,0 a 0.5,0.5 0 1,0 -1,0  M-51.36 -260.09 L-51.36 -260.09 -39.36 -260.09 M-45.36 -254.08999999999997 L-45.36 -254.08999999999997 -45.36 -266.09" id="h2992796569" class="r"></path><path d="M 519.28 -137.55 m -1, 0 a 1,1 0 1,0 2,0 a 1,1 0 1,0 -2,0 M 519.28 -137.55 m -0.5, 0 a 0.5,0.5 0 1,0 1,0 a 0.5,0.5 0 1,0 -1,0  M519.28 -137.55 L519.28 -137.55 531.28 -137.55 M 519.28 -131.55 m -1, 0 a 1,1 0 1,0 2,0 a 1,1 0 1,0 -2,0 M 519.28 -131.55 m -0.5, 0 a 0.5,0.5 0 1,0 1,0 a 0.5,0.5 0 1,0 -1,0  M519.28 -131.55 L519.28 -131.55 526.28 -137.55 519.28 -143.55 M 519.28 -143.55 m -1, 0 a 1,1 0 1,0 2,0 a 1,1 0 1,0 -2,0 M 519.28 -143.55 m -0.5, 0 a 0.5,0.5 0 1,0 1,0 a 0.5,0.5 0 1,0 -1,0  M531.28 -137.55 Q 550.53 -137.55, 569.78 -138.36 T 608.27 -139.16 M 620.27 -139.16 m -1, 0 a 1,1 0 1,0 2,0 a 1,1 0 1,0 -2,0 M 620.27 -139.16 m -0.5, 0 a 0.5,0.5 0 1,0 1,0 a 0.5,0.5 0 1,0 -1,0  M620.27 -139.16 L620.27 -139.16 608.27 -139.16 M614.27 -133.16 L614.27 -133.16 614.27 -145.16" id="h107099161" class="r"></path></g><g class="hrs"></g><g class="ts"><svg width="150.03" height="175" x="-201.39" y="-317.09" id="h1856871028" class="t"><rect height="40" width="150.03" class="th"></rect><text x="13" y="25" class="tht">Constructors</text><rect height="135" width="150.03" class="t-bg"></rect><text x="13" y="61" class="tf pk">constructorID<tspan x="137.03" class="ty">int</tspan></text><path d="M7,14A2,2 0 0,1 5,12A2,2 0 0,1 7,10A2,2 0 0,1 9,12A2,2 0 0,1 7,14M12.65,10C11.83,7.67 9.61,6 7, 6A6, 6 0 0, 0 1, 12A6, 6 0 0, 0 7, 18C9.61, 18 11.83, 16.33 12.65, 14H17V18H21V14H23V10H12.65Z" class="i pk" transform="translate(104.356171875, 48) scale(0.65)"></path><text x="13" y="86" class="tf">constructorRef<tspan x="137.03" class="ty">text</tspan></text><text x="13" y="111" class="tf">name<tspan x="137.03" class="ty">text</tspan></text><text x="13" y="136" class="tf">nationality<tspan x="137.03" class="ty">text</tspan></text><text x="13" y="161" class="tf">url<tspan x="137.03" class="ty">text</tspan></text></svg><svg width="120.68" height="200" x="955" y="-108.2" id="h3738035981" class="t"><rect height="40" width="120.68" class="th"></rect><text x="13" y="25" class="tht">Driver</text><rect height="160" width="120.68" class="t-bg"></rect><text x="13" y="61" class="tf pk">driverID<tspan x="107.68" class="ty">int</tspan></text><path d="M7,14A2,2 0 0,1 5,12A2,2 0 0,1 7,10A2,2 0 0,1 9,12A2,2 0 0,1 7,14M12.65,10C11.83,7.67 9.61,6 7, 6A6, 6 0 0, 0 1, 12A6, 6 0 0, 0 7, 18C9.61, 18 11.83, 16.33 12.65, 14H17V18H21V14H23V10H12.65Z" class="i pk" transform="translate(75.006171875, 48) scale(0.65)"></path><text x="13" y="86" class="tf">forename<tspan x="107.68" class="ty">text</tspan></text><text x="13" y="111" class="tf">surname<tspan x="107.68" class="ty">text</tspan></text><text x="13" y="136" class="tf">dob<tspan x="107.68" class="ty">date</tspan></text><text x="13" y="161" class="tf">nationality<tspan x="107.68" class="ty">text</tspan></text><text x="13" y="186" class="tf">url<tspan x="107.68" class="ty">text</tspan></text></svg><svg width="142.03" height="250" x="10.28" y="264.03" id="h4130439980" class="t"><rect height="40" width="142.03" class="th"></rect><text x="13" y="25" class="tht">Circuit</text><rect height="210" width="142.03" class="t-bg"></rect><text x="13" y="61" class="tf pk">circuitID<tspan x="129.03" class="ty">int</tspan></text><path d="M7,14A2,2 0 0,1 5,12A2,2 0 0,1 7,10A2,2 0 0,1 9,12A2,2 0 0,1 7,14M12.65,10C11.83,7.67 9.61,6 7, 6A6, 6 0 0, 0 1, 12A6, 6 0 0, 0 7, 18C9.61, 18 11.83, 16.33 12.65, 14H17V18H21V14H23V10H12.65Z" class="i pk" transform="translate(96.356171875, 48) scale(0.65)"></path><text x="13" y="86" class="tf">circuitRef<tspan x="129.03" class="ty">text</tspan></text><text x="13" y="111" class="tf">nameOfCircuit<tspan x="129.03" class="ty">text</tspan></text><text x="13" y="136" class="tf">location<tspan x="129.03" class="ty">text</tspan></text><text x="13" y="161" class="tf">lat<tspan x="129.03" class="ty">dec</tspan></text><text x="13" y="186" class="tf">lng<tspan x="129.03" class="ty">dec</tspan></text><text x="13" y="211" class="tf">alt<tspan x="129.03" class="ty">dec</tspan></text><text x="13" y="236" class="tf">url<tspan x="129.03" class="ty">text</tspan></text></svg><svg width="122.69" height="100" x="620.27" y="-196.16" id="h2620375483" class="t"><rect height="40" width="122.69" class="th"></rect><text x="13" y="25" class="tht">Status</text><rect height="60" width="122.69" class="t-bg"></rect><text x="13" y="61" class="tf pk">statusID<tspan x="109.69" class="ty">int</tspan></text><path d="M7,14A2,2 0 0,1 5,12A2,2 0 0,1 7,10A2,2 0 0,1 9,12A2,2 0 0,1 7,14M12.65,10C11.83,7.67 9.61,6 7, 6A6, 6 0 0, 0 1, 12A6, 6 0 0, 0 7, 18C9.61, 18 11.83, 16.33 12.65, 14H17V18H21V14H23V10H12.65Z" class="i pk" transform="translate(77.016171875, 48) scale(0.65)"></path><text x="13" y="86" class="tf">status<tspan x="109.69" class="ty">text</tspan></text></svg><svg width="114.02" height="250" x="-196.8" y="-44.03" id="h2913920130" class="t"><rect height="40" width="114.02" class="th"></rect><text x="13" y="25" class="tht">Race</text><rect height="210" width="114.02" class="t-bg"></rect><text x="13" y="61" class="tf pk">raceID<tspan x="101.02" class="ty">int</tspan></text><path d="M7,14A2,2 0 0,1 5,12A2,2 0 0,1 7,10A2,2 0 0,1 9,12A2,2 0 0,1 7,14M12.65,10C11.83,7.67 9.61,6 7, 6A6, 6 0 0, 0 1, 12A6, 6 0 0, 0 7, 18C9.61, 18 11.83, 16.33 12.65, 14H17V18H21V14H23V10H12.65Z" class="i pk" transform="translate(68.346171875, 48) scale(0.65)"></path><text x="13" y="86" class="tf">year<tspan x="101.02" class="ty">int</tspan></text><text x="13" y="111" class="tf">round<tspan x="101.02" class="ty">int</tspan></text><text x="13" y="136" class="tf fk">circuitID<tspan x="101.02" class="ty">int</tspan></text><text x="13" y="161" class="tf">name<tspan x="101.02" class="ty">text</tspan></text><text x="13" y="186" class="tf">date<tspan x="101.02" class="ty">date</tspan></text><text x="13" y="211" class="tf">time<tspan x="101.02" class="ty">time</tspan></text><text x="13" y="236" class="tf">url<tspan x="101.02" class="ty">text</tspan></text></svg><svg width="130.03" height="225" x="369.45" y="-110.42" id="h183539186" class="t"><rect height="40" width="130.03" class="th"></rect><text x="13" y="25" class="tht">Qualifying</text><rect height="185" width="130.03" class="t-bg"></rect><text x="13" y="61" class="tf fk">raceID<tspan x="117.03" class="ty">int</tspan></text><text x="13" y="86" class="tf fk">driverID<tspan x="117.03" class="ty">int</tspan></text><text x="13" y="111" class="tf fk">constructorID<tspan x="117.03" class="ty">int</tspan></text><text x="13" y="136" class="tf">position<tspan x="117.03" class="ty">int</tspan></text><text x="13" y="161" class="tf">q1<tspan x="117.03" class="ty">time</tspan></text><text x="13" y="186" class="tf">q2<tspan x="117.03" class="ty">time</tspan></text><text x="13" y="211" class="tf">q3<tspan x="117.03" class="ty">time</tspan></text></svg><svg width="110" height="175" x="386.49" y="348.16" id="h4204509304" class="t"><rect height="40" width="110" class="th"></rect><text x="13" y="25" class="tht">LapTime</text><rect height="135" width="110" class="t-bg"></rect><text x="13" y="61" class="tf fk">raceID<tspan x="97" class="ty">int</tspan></text><text x="13" y="86" class="tf fk">driverID<tspan x="97" class="ty">int</tspan></text><text x="13" y="111" class="tf">lap<tspan x="97" class="ty">int</tspan></text><text x="13" y="136" class="tf">position<tspan x="97" class="ty">int</tspan></text><text x="13" y="161" class="tf">time(milli)<tspan x="97" class="ty">int</tspan></text></svg><svg width="130.69" height="200" x="373.5" y="129.19" id="h1107103120" class="t"><rect height="40" width="130.69" class="th"></rect><text x="13" y="25" class="tht">PitStop</text><rect height="160" width="130.69" class="t-bg"></rect><text x="13" y="61" class="tf fk">raceID<tspan x="117.69" class="ty">int</tspan></text><text x="13" y="86" class="tf fk">driverID<tspan x="117.69" class="ty">int</tspan></text><text x="13" y="111" class="tf">stopNumber<tspan x="117.69" class="ty">int</tspan></text><text x="13" y="136" class="tf">lap<tspan x="117.69" class="ty">int</tspan></text><text x="13" y="161" class="tf">time<tspan x="117.69" class="ty">time</tspan></text><text x="13" y="186" class="tf">duration(milli)<tspan x="117.69" class="ty">int</tspan></text></svg><svg width="158.75" height="375" x="360.53" y="-494.55" id="h1488401382" class="t"><rect height="40" width="158.75" class="th"></rect><text x="13" y="25" class="tht">Results</text><rect height="335" width="158.75" class="t-bg"></rect><text x="13" y="61" class="tf fk">raceID<tspan x="145.75" class="ty">int</tspan></text><text x="13" y="86" class="tf fk">driverID<tspan x="145.75" class="ty">int</tspan></text><text x="13" y="111" class="tf fk">constructorID<tspan x="145.75" class="ty">int</tspan></text><text x="13" y="136" class="tf">grid<tspan x="145.75" class="ty">int</tspan></text><text x="13" y="161" class="tf">position<tspan x="145.75" class="ty">int</tspan></text><text x="13" y="186" class="tf">points<tspan x="145.75" class="ty">float</tspan></text><text x="13" y="211" class="tf">laps<tspan x="145.75" class="ty">int</tspan></text><text x="13" y="236" class="tf">time(milli)<tspan x="145.75" class="ty">int</tspan></text><text x="13" y="261" class="tf">fastestLap<tspan x="145.75" class="ty">int</tspan></text><text x="13" y="286" class="tf">fastestLapRank<tspan x="145.75" class="ty">int</tspan></text><text x="13" y="311" class="tf">fastestLaptime<tspan x="145.75" class="ty">time</tspan></text><text x="13" y="336" class="tf">fastestLapSpeed<tspan x="145.75" class="ty">float</tspan></text><text x="13" y="361" class="tf fk">statusID<tspan x="145.75" class="ty">int</tspan></text></svg></g></g><text class="qdbd-link" x="10" y="20">www.quickdatabasediagrams.com</text></svg>